<svg width="48" height="20" viewBox="0 0 48 20" fill="none" xmlns="http://www.w3.org/2000/svg">
<path d="M8.456 8.744H17.08L16.072 13.728H7.476L8.456 8.744ZM6.664 20H0.056L3.976 0.399999H19.908L18.9 5.384H9.576L6.664 20ZM11.9541 20L23.0141 7.876L22.1461 11.712L16.2381 0.399999H23.2941L26.7101 7.372L23.8541 7.428L29.9021 0.399999H37.3501L27.0181 11.796L27.2421 8.072L33.6821 20H26.5421L22.9861 12.664L25.9821 12.72L19.8501 20H11.9541Z" fill="white"/>
<path d="M37.4288 20L40.8728 2.78L43.1688 5.384H36.9808L37.9888 0.399999H47.9568L44.0368 20H37.4288Z" fill="#F85454"/>
</svg>
