<svg width="20" height="24" viewBox="0 0 20 24" fill="none" xmlns="http://www.w3.org/2000/svg">
<path fill-rule="evenodd" clip-rule="evenodd" d="M19.4581 14.5419C19.4581 12.9555 19.0544 11.3856 18.2915 10.0012C18.1915 9.81994 17.9887 9.71958 17.7843 9.7494C17.5792 9.77955 17.4143 9.93394 17.3706 10.1366C17.2757 10.5777 17.1112 10.9964 16.8839 11.3805C16.5855 9.74581 15.729 8.71145 14.9058 7.71744L14.9032 7.7143C13.9404 6.55175 13.0457 5.46967 13.0457 3.4245C13.0457 2.49818 13.1461 1.54751 13.345 0.598854C13.3798 0.432501 13.3269 0.260172 13.2058 0.141387C13.0846 0.0231339 12.9107 -0.0255107 12.7455 0.0129098C8.27356 1.0575 4.98436 5.68635 4.68443 11.1686C4.57805 10.7294 4.52365 10.2753 4.52365 9.81284C4.52365 9.08374 4.66306 8.36605 4.93786 7.68057C5.02167 7.47188 4.95477 7.23272 4.77487 7.09787C4.59511 6.96314 4.347 6.96533 4.17 7.1048C1.86513 8.91372 0.542969 11.6245 0.542969 14.5419C0.542969 19.757 4.7857 24 10.0005 24C15.2154 24 19.4581 19.757 19.4581 14.5419ZM14.8481 7.75995C15.6856 8.77129 16.5462 9.81064 16.8275 11.473C16.8334 11.508 16.8391 11.5434 16.8445 11.579C16.5825 9.85443 15.7033 8.79263 14.8481 7.75995ZM4.73814 11.6192C4.71516 11.549 4.69354 11.4783 4.67329 11.4072C4.52709 10.8942 4.45208 10.3592 4.45208 9.81284C4.45208 10.4349 4.54929 11.0422 4.73814 11.6192ZM5.66198 13.459C5.61009 12.9667 5.58429 12.4717 5.58429 11.9879C5.58429 6.87556 8.34188 2.44104 12.2385 1.11678C12.264 1.10812 12.2895 1.0996 12.3151 1.0912C8.37803 2.38305 5.58429 6.84211 5.58429 11.9879C5.58429 12.4717 5.61009 12.9667 5.66198 13.459ZM3.6768 8.81737C3.64783 8.84919 3.61912 8.8812 3.59067 8.9134C2.22565 10.4586 1.46518 12.4412 1.46518 14.5421C1.46518 12.3974 2.25764 10.376 3.6768 8.81737ZM12.3315 16.084C12.6192 16.7805 12.9828 17.3362 13.3101 17.8361C13.7722 18.5421 14.1616 19.1371 14.1616 19.8606C14.1616 20.8142 13.863 21.6869 13.3725 22.3819C13.3984 22.3452 13.4238 22.308 13.4487 22.2703C13.8938 21.5945 14.1616 20.7638 14.1616 19.8606C14.1616 19.1371 13.7722 18.5421 13.3101 17.8361C12.9828 17.3362 12.6192 16.7805 12.3315 16.084ZM17.8828 11.4667C17.897 11.4372 17.9109 11.4076 17.9246 11.3778C17.6543 11.9684 17.2712 12.5057 16.7901 12.9636C17.247 12.5288 17.6155 12.0224 17.8828 11.4667ZM5.4188 13.9666C5.62767 13.8855 5.75697 13.6746 5.73316 13.4515C5.68153 12.9617 5.65586 12.4692 5.65586 11.9879C5.65586 6.91318 8.38446 2.52359 12.2259 1.19676C12.1098 1.94524 12.0513 2.69176 12.0513 3.42507C12.0513 5.83009 13.1176 7.1174 14.1361 8.34707L14.1374 8.3486C15.1028 9.51422 16 10.5994 16 12.6557C16 12.8544 16.1184 13.0344 16.3014 13.1126C16.4836 13.19 16.6952 13.153 16.8395 13.0154C17.2861 12.5904 17.6494 12.0978 17.9179 11.5578C18.277 12.5073 18.4638 13.5211 18.4638 14.5421C18.4643 17.9344 16.4575 20.8663 13.5688 22.2153C13.9852 21.5457 14.2332 20.7365 14.2332 19.8606C14.2332 19.22 13.9381 18.6803 13.567 18.1002C13.5031 18.0003 13.4369 17.8991 13.3692 17.7957L13.3691 17.7955C13.042 17.2957 12.6825 16.7464 12.3977 16.0568C12.1464 15.4481 11.8777 14.6993 11.6717 14.1019C11.5687 13.8034 11.4815 13.543 11.42 13.3572C11.3892 13.2643 11.3649 13.1901 11.3483 13.1391C11.3442 13.1266 11.3406 13.1155 11.3375 13.1058C11.3342 13.0958 11.3315 13.0874 11.3293 13.0807L11.3237 13.0633L11.3227 13.0591C11.3216 13.0546 11.32 13.0481 11.3178 13.0398C11.3135 13.0234 11.3072 13 11.2986 12.9721C11.2816 12.9166 11.2558 12.8418 11.2207 12.7664C11.1859 12.6916 11.1403 12.6124 11.0823 12.5509C11.0242 12.4893 10.9474 12.439 10.8521 12.4389C10.7662 12.4389 10.6988 12.4673 10.6467 12.517C10.5974 12.5641 10.5659 12.6265 10.5416 12.687C10.528 12.7207 10.5142 12.7608 10.5008 12.7996C10.4916 12.8263 10.4826 12.8524 10.474 12.8754C10.4509 12.9374 10.4255 12.994 10.391 13.0417C10.0585 13.5033 9.7411 13.8429 9.43135 14.1743C9.38024 14.229 9.32934 14.2835 9.27862 14.3382C8.9205 14.7247 8.57348 15.1233 8.2345 15.7082C7.38136 17.1804 6.82526 18.525 6.82526 19.8609C6.82526 20.9727 7.21881 21.9833 7.85819 22.729C4.22566 21.7775 1.53675 18.4687 1.53675 14.5421C1.53675 12.4948 2.26493 10.561 3.5746 9.04069C3.54482 9.29642 3.52986 9.55425 3.52986 9.8134C3.52986 11.2592 3.98275 12.6374 4.83937 13.7983C4.9721 13.9788 5.21008 14.047 5.4188 13.9666ZM12.6453 21.9769C12.2773 22.4609 11.7606 22.7568 11.1624 22.9242C10.8671 22.9649 10.5673 22.9897 10.2634 22.9993C8.90162 22.8446 7.81933 21.5045 7.81933 19.8609C7.81933 18.7644 8.31136 17.4742 9.11843 16.1618C9.6254 15.3374 10.0229 14.9159 10.6852 14.2522C11.0615 15.1364 11.2315 15.624 11.5303 16.4809L11.5736 16.605C12.0406 17.64 12.2806 17.88 12.6122 18.5171L12.6135 18.5189C12.9212 18.9261 13.1556 19.2381 13.2394 19.8656C13.2387 20.812 13.0136 21.4924 12.6453 21.9769ZM10.7094 14.1267C10.0005 14.8355 9.5877 15.262 9.05742 16.1243C9.57397 15.2843 9.97909 14.858 10.6549 14.1812L10.7094 14.1267Z" fill="#F85454"/>
</svg>
