<svg width="28" height="28" viewBox="0 0 28 28" fill="none" xmlns="http://www.w3.org/2000/svg">
<path fill-rule="evenodd" clip-rule="evenodd" d="M13.5568 1.68573C11.1278 1.68573 9.1369 3.67661 9.1369 6.10563V13.9998C9.1369 16.4288 11.1278 18.4197 13.5568 18.4197C15.9858 18.4197 17.9767 16.4288 17.9767 13.9998V6.10563C17.9767 3.67661 15.9858 1.68573 13.5568 1.68573ZM7.45117 6.10563C7.45117 2.74561 10.1968 0 13.5568 0C16.9168 0 19.6624 2.74561 19.6624 6.10563V13.9998C19.6624 17.3598 16.9168 20.1054 13.5568 20.1054C10.1968 20.1054 7.45117 17.3598 7.45117 13.9998V6.10563Z" fill="#F85454"/>
<path fill-rule="evenodd" clip-rule="evenodd" d="M4.34286 11.8398C4.80837 11.8398 5.18573 12.2172 5.18573 12.6827V13.8668C5.18573 18.5482 8.90251 22.3654 13.5527 22.3654C18.2029 22.3654 21.9197 18.5482 21.9197 13.8668V12.6827C21.9197 12.2172 22.297 11.8398 22.7625 11.8398C23.228 11.8398 23.6054 12.2172 23.6054 12.6827V13.8668C23.6054 19.4479 19.1649 24.0511 13.5527 24.0511C7.9405 24.0511 3.5 19.4479 3.5 13.8668V12.6827C3.5 12.2172 3.87736 11.8398 4.34286 11.8398Z" fill="#F85454"/>
<path fill-rule="evenodd" clip-rule="evenodd" d="M13.5509 22.3672C14.0164 22.3672 14.3937 22.7446 14.3937 23.2101V27.1571C14.3937 27.6226 14.0164 28 13.5509 28C13.0854 28 12.708 27.6226 12.708 27.1571V23.2101C12.708 22.7446 13.0854 22.3672 13.5509 22.3672Z" fill="#F85454"/>
<path fill-rule="evenodd" clip-rule="evenodd" d="M8.76367 27.1544C8.76367 26.6889 9.14104 26.3115 9.60654 26.3115H17.5007C17.9662 26.3115 18.3435 26.6889 18.3435 27.1544C18.3435 27.6199 17.9662 27.9973 17.5007 27.9973H9.60654C9.14104 27.9973 8.76367 27.6199 8.76367 27.1544Z" fill="#F85454"/>
</svg>
