<svg width="25" height="24" viewBox="0 0 25 24" fill="none" xmlns="http://www.w3.org/2000/svg">
<path fill-rule="evenodd" clip-rule="evenodd" d="M6.76792 23.6353L23.8893 13.0297C23.8893 13.0297 24.4993 12.5997 24.4993 12.0017C24.4993 11.4037 23.8913 10.9738 23.8913 10.9738L6.76992 0.364139C5.51996 -0.451832 4.5 0.150147 4.5 1.70409V22.2974C4.5 23.8473 5.51996 24.4533 6.76792 23.6353ZM23.0592 11.7566C23.0596 11.7566 23.0574 11.7603 23.0516 11.7678C23.056 11.7604 23.0589 11.7566 23.0592 11.7566ZM22.7014 12.0011L6.00068 1.65211C6.00024 1.66879 6 1.68611 6 1.70409V22.2974C6 22.3142 6.00021 22.3305 6.0006 22.3461L22.7014 12.0011ZM23.0585 12.2449C23.0582 12.2448 23.0553 12.2411 23.051 12.2338C23.0567 12.2412 23.0589 12.2449 23.0585 12.2449Z" fill="#F85454"/>
</svg>
